<svg width="132" height="132" viewBox="0 0 132 132" fill="none" xmlns="http://www.w3.org/2000/svg">
<path d="M66 0C29.55 0 0 29.547 0 66C0 102.453 29.55 132 66 132C102.45 132 132 102.453 132 66C132 29.547 102.45 0 66 0ZM98.2 95.143C97.14 97.02 95.1901 98.076 93.1801 98.076C92.2401 98.076 91.27 97.841 90.38 97.346C82.14 92.726 73.16 89.896 63.67 88.935C54.16 87.982 44.77 88.947 35.75 91.827C32.74 92.788 29.5 91.125 28.54 88.11C27.57 85.09 29.24 81.861 32.26 80.895C42.78 77.534 53.75 76.391 64.83 77.517C75.89 78.643 86.37 81.943 95.99 87.335C98.76 88.877 99.75 92.375 98.2 95.143ZM106.1 75.096C105.08 77.059 103.08 78.185 101.01 78.185C100.11 78.185 99.21 77.979 98.36 77.534C88.23 72.258 77.2899 68.991 65.8199 67.827C54.2599 66.644 42.81 67.675 31.77 70.859C28.72 71.725 25.54 69.981 24.67 66.932C23.79 63.888 25.55 60.708 28.59 59.829C41.05 56.236 53.97 55.085 66.98 56.405C79.9 57.721 92.24 61.401 103.67 67.357C106.47 68.822 107.57 72.286 106.1 75.096ZM108.96 58.418C108.1 58.418 107.23 58.224 106.4 57.816C94.38 51.822 81.45 48.089 67.96 46.72C54.45 45.338 41.01 46.406 28 49.88C24.94 50.692 21.8 48.877 20.98 45.812C20.16 42.751 21.98 39.604 25.05 38.787C39.4 34.955 54.24 33.788 69.13 35.302C84 36.807 98.26 40.928 111.52 47.541C114.36 48.955 115.51 52.404 114.1 55.238C113.1 57.255 111.07 58.418 108.96 58.418Z" fill="#1ED760"/>
</svg>
